<svg xmlns="http://www.w3.org/2000/svg" width="368.504" height="85.04" viewBox="0 0 368.504 85.04"><path d="M25.713 42.247h-9.91a4.089 4.089 0 0 0-4.089 4.089c0 2.26 1.83 4.09 4.089 4.09h9.91a4.088 4.088 0 0 0 4.089-4.09 4.089 4.089 0 0 0-4.089-4.089zm105.094-31.745c-.001-.023-.079-.037-.263-.037H35.068a4.09 4.09 0 0 0 0 8.177H48.49a3.97 3.97 0 0 1 3.526 3.944 3.97 3.97 0 0 1-3.477 3.936H25.951a4.089 4.089 0 1 0 0 8.178h35.337a4.022 4.022 0 0 1-.23 8.016H40.92a4.09 4.09 0 0 0 0 8.178h5.732a4.088 4.088 0 0 1 3.651 3.53v.001c0 .184.016.363.039.539l-.002.023h.006a4.086 4.086 0 0 0 4.046 3.527H66.05a4.084 4.084 0 0 1 3.826 4.048l-.001.027a4.089 4.089 0 0 0 4.089 4.089h33.145c.133.002 39.17-56.233 23.698-56.176z" fill="#FFF"/><path fill="#86321C" d="M109.79 14.48c-23.403 9.157-36.182 32.409-32.941 40.69 3.239 8.279 28.404 16.688 51.809 7.531 23.402-9.158 36.182-32.411 32.942-40.69-3.241-8.281-28.406-16.687-51.81-7.531z"/><path fill="#FFF" d="M146.5 27.918c2.391 6.112 4.231 12.174 5.547 18.026a54.944 54.944 0 0 0 5.31-7.319 113.697 113.697 0 0 0-4.281-13.28 113.694 113.694 0 0 0-5.867-12.659 54.932 54.932 0 0 0-8.867-1.772c3.005 5.192 5.766 10.893 8.158 17.004zM91.948 49.262c-2.392-6.112-4.253-12.479-5.567-18.332-2.08 2.431-3.934 4.756-5.391 7.173 1.119 4.38 2.64 9.279 4.381 13.731a113.975 113.975 0 0 0 5.867 12.66c2.475 1.819 5.855 2.185 8.872 1.771-3.006-5.19-5.771-10.89-8.162-17.003zm44.921-32.248a3.378 3.378 0 0 0-.642-1.022c-7.638-.355-16.085.691-24.315 3.911-8.23 3.221-15.146 8.185-20.514 13.628.008.414.075.813.222 1.187.414 1.058 1.369 1.848 2.738 2.383 5.196-5.004 11.716-9.52 19.385-12.521 7.667-3 15.521-4.108 22.731-3.958.645-1.322.809-2.551.395-3.608z"/><path fill="#FFF" d="M93.786 31.244a1.885 1.885 0 0 0-3.256 1.898l2.999 5.146a1.884 1.884 0 1 0 3.255-1.897l-2.998-5.147zm5.352-4.735a1.883 1.883 0 1 0-3.135 2.091l3.306 4.954a1.885 1.885 0 0 0 3.134-2.092l-3.305-4.953zm6.212-4.166a1.883 1.883 0 1 0-3.296 1.825l2.888 5.21a1.885 1.885 0 0 0 3.297-1.826l-2.889-5.209zm29.004-8.657a1.884 1.884 0 0 0-1.431 2.247l1.29 5.814a1.885 1.885 0 0 0 3.679-.816l-1.291-5.815a1.883 1.883 0 0 0-2.247-1.43zm-7.01.243a1.884 1.884 0 0 0-1.564 2.155l.934 5.882a1.883 1.883 0 1 0 3.72-.591l-.934-5.882a1.884 1.884 0 0 0-2.156-1.564zm-7.574 1.035a1.884 1.884 0 0 0-1.383 2.277l1.416 5.785a1.886 1.886 0 0 0 2.278 1.383 1.886 1.886 0 0 0 1.382-2.278l-1.417-5.785a1.88 1.88 0 0 0-2.276-1.382zm-8.859 3.008a1.882 1.882 0 0 0-1.068 2.44l2.172 5.546a1.884 1.884 0 1 0 3.507-1.374l-2.172-5.545a1.88 1.88 0 0 0-2.439-1.067z"/><path opacity=".2" d="M146.128 12.385c-1.033 10.25-13.291 28.481-33.369 36.337-12.898 5.047-26.334 4.756-36.336 2.094-.172 1.699-.034 3.176.426 4.354 3.239 8.279 28.404 16.688 51.809 7.531 23.402-9.158 36.182-32.411 32.942-40.69-1.455-3.717-7.327-7.458-15.472-9.626z"/><path d="M176.421 10.196c2.981 0 5.29.759 6.924 2.275 1.634 1.517 2.451 3.525 2.451 6.025 0 2.526-.817 4.544-2.451 6.055-1.634 1.511-3.942 2.266-6.924 2.266h-6.484v9.844l3.184.254v1.719h-8.691v-1.719l3.184-.254V12.188l-3.184-.254v-1.738h11.991zm-6.484 14.629h6.484c2.344 0 4.104-.596 5.283-1.787s1.768-2.692 1.768-4.502c0-1.823-.586-3.336-1.758-4.541-1.172-1.204-2.937-1.807-5.293-1.807h-6.484v12.637zm31.23-14.61c3.047 0 5.388.664 7.021 1.992s2.451 3.249 2.451 5.762a6.59 6.59 0 0 1-1.309 4.004c-.872 1.185-2.103 2.044-3.691 2.578 1.758.443 3.024 1.234 3.799 2.373.774 1.14 1.162 2.575 1.162 4.307v2.598c0 1.003.156 1.745.469 2.227.313.482.788.742 1.426.781l.957.059v1.738h-1.484c-1.38 0-2.344-.469-2.891-1.406s-.82-2.083-.82-3.438v-2.52c0-1.719-.55-3.083-1.65-4.092-1.101-1.009-2.634-1.533-4.6-1.572h-7.148v11.055l3.184.273v1.699h-8.691v-1.699l3.184-.273V12.208l-3.184-.273v-1.719h11.815zm-6.308 13.399h6.035c2.565 0 4.44-.514 5.625-1.543 1.185-1.028 1.777-2.402 1.777-4.121 0-1.823-.593-3.235-1.777-4.238-1.185-1.002-2.969-1.504-5.352-1.504h-6.309v11.406zm21.719-11.68v-1.738h8.711v1.738l-3.184.254v24.473l3.184.254v1.719h-8.711v-1.719l3.184-.254V12.188l-3.184-.254zm40.117 1.699l-.117-.039-10.566 25.039h-1.621l-10.547-24.922-.117.02.215 12.344v10.586l3.184.254v1.719h-8.691v-1.719l3.184-.254V12.188l-3.184-.254v-1.738h6.25l10.449 25.039h.117l10.488-25.039h6.27v1.738l-3.184.254v24.473l3.184.254v1.719h-8.691v-1.719l3.184-.254V26.075l.193-12.442zm25.254 11.231h-11.66v11.797h13.438l.176-4.258h2.07v6.23h-21.191v-1.719l3.184-.254V12.188l-3.184-.254v-1.738h21.094v6.25h-2.07l-.176-4.258h-13.34v10.684h11.66v1.992zm8.34-12.93v-1.738H299v1.738l-3.184.254v24.473l3.184.254v1.719h-8.711v-1.719l3.184-.254V12.188l-3.184-.254zm23.671-1.719c3.047 0 5.388.664 7.021 1.992s2.451 3.249 2.451 5.762a6.59 6.59 0 0 1-1.309 4.004c-.872 1.185-2.103 2.044-3.691 2.578 1.758.443 3.024 1.234 3.799 2.373.774 1.14 1.162 2.575 1.162 4.307v2.598c0 1.003.156 1.745.469 2.227.313.482.788.742 1.426.781l.957.059v1.738h-1.484c-1.38 0-2.344-.469-2.891-1.406s-.82-2.083-.82-3.438v-2.52c0-1.719-.55-3.083-1.65-4.092-1.101-1.009-2.634-1.533-4.6-1.572h-7.148v11.055l3.184.273v1.699h-8.691v-1.699l3.184-.273V12.208l-3.184-.273v-1.719h11.815zm-6.308 13.399h6.035c2.565 0 4.44-.514 5.625-1.543 1.185-1.028 1.777-2.402 1.777-4.121 0-1.823-.593-3.235-1.777-4.238-1.185-1.002-2.969-1.504-5.352-1.504h-6.309v11.406zm21.015 13.301l2.09-.156 10.098-26.563h2.207l10 26.563 2.129.156v1.719h-7.012v-1.719l2.48-.195-2.344-6.367h-12.773l-2.363 6.367 2.48.195v1.719h-6.992v-1.719zm7.657-8.653h11.23l-5.527-15.039h-.117l-5.586 15.039zM185.796 40.196v3.438l-3.047.586v15.879c0 2.748-.896 4.925-2.686 6.533-1.79 1.608-4.053 2.412-6.787 2.412-2.969 0-5.319-.723-7.051-2.168s-2.565-3.574-2.5-6.387l.039-.117h5.547c0 1.498.358 2.588 1.074 3.271s1.68 1.025 2.891 1.025c1.055 0 1.95-.407 2.686-1.221.735-.813 1.104-1.93 1.104-3.35V44.219l-3.047-.586v-3.438h11.777zm-.625 25.019l2.031-.293 8.652-24.727h5.84l8.594 24.727 2.031.293v3.418h-9.688v-3.418l1.973-.352-1.25-3.906h-9.219l-1.25 3.906 1.973.352v3.418h-9.688v-3.418zm10.313-8.457h6.523l-3.203-10.02h-.117l-3.203 10.02zm31.484-16.562c3.229 0 5.762.739 7.598 2.217 1.836 1.478 2.754 3.519 2.754 6.123 0 1.433-.384 2.676-1.152 3.73s-1.895 1.908-3.379 2.559c1.68.495 2.888 1.318 3.623 2.471s1.104 2.582 1.104 4.287v1.445c0 .625.124 1.11.371 1.455s.657.55 1.23.615l.703.098v3.438h-2.949c-1.862 0-3.171-.501-3.926-1.504-.755-1.002-1.133-2.298-1.133-3.887v-1.621c0-1.38-.368-2.464-1.104-3.252-.735-.788-1.774-1.201-3.115-1.24h-4.668v7.5l3.047.586v3.418h-11.777v-3.418l3.027-.586V44.22l-3.027-.586v-3.438h12.773zm-4.043 12.539h3.945c1.589 0 2.78-.338 3.574-1.016.794-.677 1.191-1.653 1.191-2.93 0-1.276-.394-2.295-1.182-3.057s-1.95-1.143-3.486-1.143h-4.043v8.146zm31.563-12.539c3.477 0 6.341 1.11 8.594 3.33 2.253 2.22 3.379 5.068 3.379 8.545v4.707c0 3.49-1.126 6.338-3.379 8.545s-5.117 3.311-8.594 3.311h-12.793v-3.418l3.027-.586V44.22l-3.027-.586v-3.438h12.793zm-4.063 4.394v19.668h3.77c2.044 0 3.646-.69 4.805-2.07 1.159-1.38 1.738-3.184 1.738-5.41v-4.746c0-2.2-.579-3.991-1.738-5.371-1.159-1.38-2.761-2.07-4.805-2.07h-3.77zm17.364 20.625l2.031-.293 8.652-24.727h5.84l8.594 24.727 2.031.293v3.418h-9.688v-3.418l1.973-.352-1.25-3.906h-9.219l-1.25 3.906 1.973.352v3.418h-9.688v-3.418zm10.312-8.457h6.523l-3.203-10.02h-.117l-3.203 10.02z" fill="#FFF"/></svg>